<?xml version="1.0" encoding="utf-8"?>
<!-- Generator: Adobe Illustrator 25.0.0, SVG Export Plug-In . SVG Version: 6.00 Build 0)  -->
<svg version="1.1" id="圖層_1" xmlns="http://www.w3.org/2000/svg" xmlns:xlink="http://www.w3.org/1999/xlink" x="0px" y="0px"
	 viewBox="0 0 283.5 283.5" style="enable-background:new 0 0 283.5 283.5;" xml:space="preserve">
<style type="text/css">
	.st0{fill:url(#SVGID_1_);}
	.st1{fill:#FFFFFF;}
</style>
<radialGradient id="SVGID_1_" cx="76.6191" cy="45.4148" r="287.022" gradientUnits="userSpaceOnUse">
	<stop  offset="0" style="stop-color:#00FF3B"/>
	<stop  offset="0.1229" style="stop-color:#00E53B"/>
	<stop  offset="0.2504" style="stop-color:#00D23B"/>
	<stop  offset="0.3816" style="stop-color:#00C73B"/>
	<stop  offset="0.5209" style="stop-color:#00C33B"/>
	<stop  offset="0.7652" style="stop-color:#00A03B"/>
	<stop  offset="1" style="stop-color:#00C33B"/>
</radialGradient>
<path class="st0" d="M141.8,283.2L141.8,283.2C64,283.2,0.5,219.7,0.5,142v-0.4C0.5,63.8,64,0.3,141.7,0.3h0
	C219.5,0.3,283,63.8,283,141.5v0.4C283,219.7,219.5,283.2,141.8,283.2z"/>
<g>
	<g>
		<g>
			<g>
				<path class="st1" d="M231,178.8c-8,17.9-20.5,33.4-36.7,45.2c-24.3,17.7-54.1,24.7-83.8,20c-22.2-3.6-42.6-13.5-59-28.8
					c-5.6-5.2-5.9-14-0.7-19.7s14-5.9,19.7-0.7c12.3,11.5,27.7,19,44.4,21.8c22.3,3.6,44.8-1.7,63.1-15c18.3-13.3,30.4-32.9,34-55.2
					l4.6-28.9c1.2-7.6,8.4-12.7,15.9-11.6c7.6,1.2,12.7,8.4,11.6,15.9l-4.6,28.9C237.8,160.4,234.9,169.9,231,178.8z"/>
			</g>
			<path class="st1" d="M64.1,89.2l25.5-9.3c3.1-1.2,5.7-3.6,6.9-6.8l9.8-25.3c3.8-10,18.3-10,21.9,0.2l9.3,25.5
				c1.2,3.1,3.6,5.7,6.8,6.9l25.3,9.8c10,3.8,10,18.3-0.2,21.9l-25.5,9.3c-3.1,1.2-5.7,3.6-6.9,6.8l-9.9,25.6
				c-3.8,10-18.3,10-21.9-0.2l-9.3-25.5c-1.2-3.1-3.6-5.7-6.8-6.9l-25.3-9.8C53.7,107.2,53.9,93,64.1,89.2z"/>
		</g>
	</g>
</g>
</svg>
