<?xml version="1.0" encoding="utf-8"?>
<!-- Generator: Adobe Illustrator 25.0.0, SVG Export Plug-In . SVG Version: 6.00 Build 0)  -->
<svg version="1.1" id="圖層_1" xmlns="http://www.w3.org/2000/svg" xmlns:xlink="http://www.w3.org/1999/xlink" x="0px" y="0px"
	 viewBox="0 0 283.5 283.5" style="enable-background:new 0 0 283.5 283.5;" xml:space="preserve">
<style type="text/css">
	.st0{fill:#FFFFFF;}
	.st1{fill:url(#SVGID_1_);}
	.st2{fill:url(#SVGID_2_);}
	.st3{fill:url(#SVGID_3_);}
</style>
<path class="st0" d="M271.1,106.3c9.6,35.1,4.4,70.8-12,100.3c-7.1,12.9,29,14.7,18,24.7c-15.2,13.8-58.1,28.5-100.2,40
	c-71.6,19.6-145.5-22.6-165.1-94.2S34.4,31.7,106,12.1S251.5,34.7,271.1,106.3z"/>
<g>
	
		<image style="overflow:visible;opacity:0.2;enable-background:new    ;" width="946" height="1008" xlink:href="F4B3ECD7126AB3AD.png"  transform="matrix(0.239 0 0 0.239 20.0865 27.9379)">
	</image>
	<g>
		<g>
			<g>
				<radialGradient id="SVGID_1_" cx="96" cy="55.1811" r="229.1048" gradientUnits="userSpaceOnUse">
					<stop  offset="0" style="stop-color:#00FF3B"/>
					<stop  offset="0.1229" style="stop-color:#00E53B"/>
					<stop  offset="0.2504" style="stop-color:#00D23B"/>
					<stop  offset="0.3816" style="stop-color:#00C73B"/>
					<stop  offset="0.5209" style="stop-color:#00C33B"/>
					<stop  offset="0.7652" style="stop-color:#00A03B"/>
					<stop  offset="1" style="stop-color:#00C33B"/>
				</radialGradient>
				<path class="st1" d="M144.7,252.1c-19.9,0-39.5-5.2-57.2-15.4c-26.5-15.3-45.4-40-53.3-69.6c-5.9-22.1-5.1-45.2,2.3-66.8
					c2.5-7.4,10.6-11.3,18-8.8s11.3,10.6,8.8,18c-5.6,16.2-6.2,33.6-1.8,50.3c5.9,22.2,20.2,40.9,40.1,52.4s43.2,14.6,65.4,8.7
					l28.8-7.7c7.6-2,15.3,2.5,17.4,10c2,7.6-2.5,15.3-10,17.4l-28.8,7.7C164.6,250.8,154.6,252.1,144.7,252.1z"/>
			</g>
			<radialGradient id="SVGID_2_" cx="96" cy="55.1811" r="229.1048" gradientUnits="userSpaceOnUse">
				<stop  offset="0" style="stop-color:#00FF3B"/>
				<stop  offset="0.1229" style="stop-color:#00E53B"/>
				<stop  offset="0.2504" style="stop-color:#00D23B"/>
				<stop  offset="0.3816" style="stop-color:#00C73B"/>
				<stop  offset="0.5209" style="stop-color:#00C33B"/>
				<stop  offset="0.7652" style="stop-color:#00A03B"/>
				<stop  offset="1" style="stop-color:#00C33B"/>
			</radialGradient>
			<path class="st2" d="M227.5,111.4c-2.3-2.6-5.4-4.2-9.3-4.7s-7.3,0.2-10.2,2c-3.3,2-5.3,5.1-5.8,9.2l-3.2,24l-37.6-49.5
				c-4.7-6.3-11.3-8.7-19.6-7.2c-8.1,1.5-13.3,5.9-15.5,13.3L100,183.8c-0.6,2-0.7,4.4-0.2,7.2c0.7,3.7,2.8,6.5,6.5,8.4
				c3.3,1.9,6.9,2.5,10.8,1.8c5.7-1,9.5-4.7,11.5-10.9l2.6-6.4l54.8-10l8.3,10.4c4.1,5.2,9.3,7.3,15.5,6.2c3.7-0.7,6.8-2.4,9.4-5.3
				c1.7-1.9,2.6-4,2.9-6.1c0.8-1.5,1.4-3.2,1.7-5.2l7-52C231.3,117.7,230.2,114.2,227.5,111.4z M138.9,155l9.5-33.9l20.3,28.5
				L138.9,155z"/>
			<radialGradient id="SVGID_3_" cx="96" cy="55.1811" r="229.1048" gradientUnits="userSpaceOnUse">
				<stop  offset="0" style="stop-color:#00FF3B"/>
				<stop  offset="0.1229" style="stop-color:#00E53B"/>
				<stop  offset="0.2504" style="stop-color:#00D23B"/>
				<stop  offset="0.3816" style="stop-color:#00C73B"/>
				<stop  offset="0.5209" style="stop-color:#00C33B"/>
				<stop  offset="0.7652" style="stop-color:#00A03B"/>
				<stop  offset="1" style="stop-color:#00C33B"/>
			</radialGradient>
			<path class="st3" d="M201.4,33l9.7,10c1.2,1.2,2.9,1.9,4.6,1.8l13.9-0.7c5.5-0.3,8.5,6.5,4.5,10.3l-10,9.7
				c-1.2,1.2-1.9,2.9-1.8,4.6l0.7,13.9c0.3,5.5-6.5,8.5-10.3,4.5l-9.7-10c-1.2-1.2-2.9-1.9-4.6-1.8L184.3,76
				c-5.5,0.3-8.5-6.5-4.5-10.3l10-9.7c1.2-1.2,1.9-2.9,1.8-4.6l-0.7-13.9C190.8,31.9,197.5,29,201.4,33z"/>
		</g>
	</g>
</g>
</svg>
